<?xml version="1.0" encoding="utf-8"?>
<!-- Generator: Adobe Illustrator 15.1.0, SVG Export Plug-In . SVG Version: 6.00 Build 0)  -->
<!DOCTYPE svg PUBLIC "-//W3C//DTD SVG 1.1//EN" "http://www.w3.org/Graphics/SVG/1.1/DTD/svg11.dtd">
<svg version="1.1" id="Layer_1" xmlns="http://www.w3.org/2000/svg" xmlns:xlink="http://www.w3.org/1999/xlink" x="0px" y="0px"
	 width="100px" height="75.429px" viewBox="0 0 100 75.429" enable-background="new 0 0 100 75.429" xml:space="preserve">
	<path id="_x3C_Path_x3E_" fill="#010101" d="M96.721,75.429c-9.014,0-7.104-9.02-22.957-9.02c-15.852,0-20.295,9.02-23.776,9.02
	s-7.925-9.02-23.777-9.02c-15.85,0-13.949,9.02-22.957,9.02C1.592,75.429,0,74.243,0,72.192V12.804C0,12.804,9.677,0,26.21,0
	c16.536,0,23.91,9.092,23.91,9.092S57.092,0,73.764,0C94.33,0,100,13.116,100,13.116v59.034C100,74.198,98.578,75.429,96.721,75.429
	z M95.08,14.757c0,0-4.919-9.839-21.316-9.839c-17.08,0-19.931,9.741-23.644,9.741c-3.714,0-6.105-9.741-23.91-9.741
	c-13.585,0-21.315,9.839-21.315,9.839V68.87c0,1.023,0.614,1.64,1.64,1.64c0,0,4.481-9.021,19.676-9.021
	c16.563,0,23.91,8.848,23.91,8.848s7.109-8.848,23.643-8.848c14.897,0,19.678,9.021,19.678,9.021c1.025,0,1.641-0.616,1.641-1.64
	V14.757H95.08z"/>
	<rect x="48.348" y="19.266" fill="#010101" width="3.28" height="38.534"/>
</svg>