<?xml version="1.0" encoding="UTF-8" standalone="no"?>
<!-- Created with Inkscape (http://www.inkscape.org/) -->

<svg
   xmlns:dc="http://purl.org/dc/elements/1.1/"
   xmlns:cc="http://creativecommons.org/ns#"
   xmlns:rdf="http://www.w3.org/1999/02/22-rdf-syntax-ns#"
   xmlns:svg="http://www.w3.org/2000/svg"
   xmlns="http://www.w3.org/2000/svg"
   version="1.1"
   width="412"
   height="594.02002"
   id="svg2">
  <defs
     id="defs4" />
  <metadata
     id="metadata7">
    <rdf:RDF>
      <cc:Work
         rdf:about="">
        <dc:format>image/svg+xml</dc:format>
        <dc:type
           rdf:resource="http://purl.org/dc/dcmitype/StillImage" />
        <dc:title></dc:title>
      </cc:Work>
    </rdf:RDF>
  </metadata>
  <g
     transform="translate(0,-458.34219)"
     id="layer1">
    <path
       d="m 327.05499,761.86215 c 0,66.275 -53.726,120 -120,120 -66.274,0 -120,-53.725 -120,-120 0,-66.273 53.726,-120 120,-120 66.274,0 120,53.727 120,120 z m -20.954,125.66 c -27.968,22.084 -62.633,34.34 -99.046,34.34 -36.835,0 -71.839,-12.543 -99.934,-35.051 C 33.06699,913.98715 0,1008.9892 0,1052.3622 h 412 c 0,-43 -33.32201,-137.32405 -105.89901,-164.84005 z"
       id="user-6-icon" />
    <path
       d="m 0,543.66515 c 52.72001,-52.72 125.552,-85.32799 206,-85.32799 80.44799,0 153.27999,32.60799 206,85.32799 l -35,35 c -43.763,-43.763 -104.22101,-70.83 -171,-70.83 -66.77999,0 -127.23699,27.067 -171,70.83 z m 98.19601,98.197 c 27.58899,-27.59 65.70398,-44.654 107.80399,-44.654 42.1,0 80.215,17.064 107.80399,44.654 l 35.93501,-35.936 c -36.785,-36.787 -87.604,-59.539 -143.738,-59.539 -56.134,0 -106.95299,22.752 -143.73799,59.539 z"
       id="wireless-6-icon" />
  </g>
</svg>
